# xmcd CD database file
#
# Track frame offsets:
#	150
#	9889
#	25538
#	42939
#	56067
#	69592
#	80333
#	93691
#	102894
#	114896
#	132971
#	149080
#	158059
#	170493
#	181603
#	193613
#	204556
#	215065
#	225489
#	237662
#
# Disc length: 3334 seconds
#
# Revision: 0
# Processed by: cddbd v1.5PL3 Copyright (c) Steve Scherf et al.
# Submitted via: CDex 1.51
#
DISCID=0f0d0414
DTITLE=Glenn Miller - Glenn Miller Joue Les Mélodies Eternelles
DYEAR=1900
DGENRE=Jazz
TTITLE0=Oh ! What A Beautiful Mornin'
TTITLE1=Gebin The Beguine
TTITLE2=Stardust
TTITLE3=Rhapsody In Blue
TTITLE4=Song Of The Volga Boatmen
TTITLE5=Summertime
TTITLE6=Little Brown Jug
TTITLE7=Cherokee
TTITLE8=Sun Valley Jump
TTITLE9=Anvil Chorus
TTITLE10=Tuxedo Junction
TTITLE11=Goodnight Wherever You Are
TTITLE12=Shoo-Shoo Baby
TTITLE13=Dearly Beloved
TTITLE14=I Love You
TTITLE15=The Way You Look Tonight
TTITLE16=All The Things You Are
TTITLE17=Danny Boy
TTITLE18=Georgia On My Mind
TTITLE19=Perfidia
EXTD=
EXTT0=
EXTT1=
EXTT2=
EXTT3=
EXTT4=
EXTT5=
EXTT6=
EXTT7=
EXTT8=
EXTT9=
EXTT10=
EXTT11=
EXTT12=
EXTT13=
EXTT14=
EXTT15=
EXTT16=
EXTT17=
EXTT18=
EXTT19=
PLAYORDER=
